<svg id="图层_1" data-name="图层 1" xmlns="http://www.w3.org/2000/svg" viewBox="0 0 322.31 272.8"><defs><style>.cls-1,.cls-2{stroke:#000;stroke-miterlimit:10;}.cls-2{fill:#fff;}</style></defs><path class="cls-1" d="M224.34,249.3c12.9-5.64,22-17.38,29.45-29.35a220.24,220.24,0,0,0,18.89-38.39c3-8,5.6-16.92,2.91-25.07-3.15-9.55-12.57-15.43-21.59-19.87a221.18,221.18,0,0,0-109.13-22.3c-6,.32-12.09.92-17.6,3.3-6.7,2.9-12.07,8.25-16.41,14.12-16.8,22.72-19.49,52.84-18.25,81.07,1,22.61,4.11,45.07,7.23,67.5,4.35,31.33,8.88,63.29,22.85,91.67,2,4.17,4.45,8.41,8.37,10.9,3.51,2.22,7.82,2.76,12,2.89a72.23,72.23,0,0,0,29.65-5.44c8.88-3.68,17.88-10.63,18.27-20.23.15-3.84-1.12-7.58-2.63-11.11-8.63-20.21-25.74-39.08-22.25-60.78,1.76-11,10.58-25.18,20.17-31.34C197.08,249.9,212.3,254.56,224.34,249.3Z" transform="translate(-91.85 -113.5)"/><path class="cls-1" d="M272.49,219.2c4.78-4,11.74-3.71,18-3.14a8.07,8.07,0,0,1,4,1.08c1.63,1.15,2.19,3.28,2.54,5.24a66,66,0,0,1-.44,25.33c-.58,2.71-1.41,5.52-3.37,7.48-4.1,4.1-10.92,2.79-16.49,1.18a9,9,0,0,1-4.15-2C265,246.39,263.65,226.61,272.49,219.2Z" transform="translate(-91.85 -113.5)"/><path class="cls-1" d="M267,279a141.82,141.82,0,0,0-1.4,93c1.61,4.83,3.88,10,8.5,12.16,4.25,2,9.46.7,13.2-2.12s6.26-6.95,8.42-11.11A108.11,108.11,0,0,0,304,293.87c-1.95-7.2-4.8-14.41-10-19.73C283.77,263.81,271.89,265.75,267,279Z" transform="translate(-91.85 -113.5)"/><path class="cls-1" d="M412.82,281.57c0-2.25,0-4.66-1.35-6.47-1.53-2.09-4.32-2.75-6.88-3.19-12.25-2.08-25-2.32-37,1s-23.13,10.53-29.79,21c-9,14.17-8.81,32.08-8.33,48.86.14,5.11.4,10.56,3.41,14.69,2.7,3.71,7.13,5.66,11.35,7.45l27.07,11.5c8.95,3.79,19.24,7.59,28,3.46,7.18-3.37,11.19-11.21,13.18-18.89,1.13-4.38,1.76-9.11.18-13.35-2.56-6.89-10.29-10.55-17.6-11.27s-14.65.79-22,.79c-7.56,0-25-4.18-20.9-15.2,2.41-6.42,14.45-9.55,20.38-10.43,9.57-1.42,22.39,1,30.91-4.22S412.75,290.49,412.82,281.57Z" transform="translate(-91.85 -113.5)"/><path class="cls-2" d="M174,166.16c3.58-2.43,8.17-2.6,12.49-2.7,2.76-.06,5.74-.05,8,1.57a9.64,9.64,0,0,1,3.1,4.36c3.78,9.28-.78,21.11-9.8,25.47a5.42,5.42,0,0,1-3.38.7,5.87,5.87,0,0,1-2.73-1.76,51.84,51.84,0,0,1-11.46-16.52c-.94-2.15-1.73-4.54-1.08-6.79s3.36-4,5.39-2.82" transform="translate(-91.85 -113.5)"/></svg>