<svg t="1705377427335" class="icon" viewBox="0 0 1024 1024" version="1.1" xmlns="http://www.w3.org/2000/svg" p-id="4267" width="200" height="200"><path d="M243.712 541.5936v-455.168c0-16.9472-13.7728-30.72-30.72-30.72s-30.72 13.7728-30.72 30.72v455.2192c-64.4096 14.1312-112.7424 71.5776-112.7424 140.1344s48.3328 126.0032 112.7424 140.1344v107.7248c0 16.9472 13.7728 30.72 30.72 30.72s30.72-13.7728 30.72-30.72v-107.7248c64.4096-14.1312 112.7424-71.5776 112.7424-140.1344 0-68.608-48.384-126.0544-112.7424-140.1856z m-30.72 222.1568c-45.2096 0-82.0224-36.8128-82.0224-82.0224s36.8128-82.0224 82.0224-82.0224 82.0224 36.8128 82.0224 82.0224-36.8128 82.0224-82.0224 82.0224zM941.0048 681.728c0-68.5568-48.3328-126.0032-112.7424-140.1344v-455.168c0-16.9472-13.7728-30.72-30.72-30.72s-30.72 13.7728-30.72 30.72v455.2192c-64.4096 14.1312-112.7424 71.5776-112.7424 140.1344s48.3328 126.0032 112.7424 140.1344v107.7248c0 16.9472 13.7728 30.72 30.72 30.72s30.72-13.7728 30.72-30.72v-107.7248c64.4096-14.1824 112.7424-71.6288 112.7424-140.1856z m-143.4624 82.0224c-45.2096 0-82.0224-36.8128-82.0224-82.0224s36.8128-82.0224 82.0224-82.0224 82.0224 36.8128 82.0224 82.0224-36.8128 82.0224-82.0224 82.0224zM508.8256 428.2368c-16.9472 0-30.72 13.7728-30.72 30.72v470.6304c0 16.9472 13.7728 30.72 30.72 30.72s30.72-13.7728 30.72-30.72V458.9568c0-16.9472-13.7216-30.72-30.72-30.72z" fill="#424242" p-id="4268"></path><path d="M508.8256 236.7488c-16.9472 0-30.72-13.7728-30.72-30.72V86.4256c0-16.9472 13.7728-30.72 30.72-30.72s30.72 13.7728 30.72 30.72v119.6032c0 16.9472-13.7216 30.72-30.72 30.72z" fill="#424242" p-id="4269"></path><path d="M508.8256 477.696c-79.104 0-143.4624-64.3584-143.4624-143.4624s64.3584-143.4624 143.4624-143.4624 143.4624 64.3584 143.4624 143.4624S587.9296 477.696 508.8256 477.696z m0-225.4848c-45.2096 0-82.0224 36.8128-82.0224 82.0224S463.616 416.256 508.8256 416.256s82.0224-36.8128 82.0224-82.0224-36.7616-82.0224-82.0224-82.0224z" fill="#F8B62D" p-id="4270"></path></svg>