<svg t="1705215405096" class="icon" viewBox="0 0 1078 1024" version="1.1" xmlns="http://www.w3.org/2000/svg" p-id="8420" width="200" height="200"><path d="M539.069895 392.402646c-230.555218 0-402.892325 237.758385-402.892325 450.296706 0 67.828321 17.208562 114.424366 52.487912 142.590364 37.309169 29.800632 89.473747 33.590827 130.716815 33.590826 29.710817 0 62.080159-2.281302 96.371542-4.670382 79.055202-5.514644 167.648761-5.514644 246.668038 0 34.309347 2.38908 66.714615 4.670382 96.335616 4.670382 90.641343 0 183.204727-20.926905 183.204727-176.18119 0-212.538321-172.283218-450.296705-402.892325-450.296706z" fill="#FBB713" p-id="8421"></path><path d="M711.389039 439.681286c82.378359 88.036706 132.584968 209.96961 132.584968 324.645458 0 155.254285-92.563385 176.163228-183.186764 176.163228-29.638965 0-62.044233-2.263339-96.335616-4.652419a1841.226368 1841.226368 0 0 0-246.686001 0c-34.291384 2.38908-66.642763 4.652419-96.371542 4.652419-21.555611 0-46.057155-1.13167-69.912031-6.376868 8.676133 21.088572 20.926905 38.189357 37.183429 51.176612 37.309169 29.800632 89.473747 33.60879 130.716815 33.608789 29.710817 0 62.080159-2.299265 96.371542-4.688345 79.055202-5.514644 167.648761-5.514644 246.668038 0 34.309347 2.38908 66.714615 4.688345 96.335616 4.688345 90.641343 0 183.204727-20.944868 183.204727-176.199153 0-154.948914-91.611345-323.172492-230.573181-403.018066z" fill="#060606" p-id="8422"></path><path d="M209.07146 523.963723c27.357662-11.208918 48.248642-33.411196 58.757002-62.493308 13.885406-38.368987 8.963541-84.71355-13.472257-127.10625-39.033618-73.684262-125.040504-114.783626-187.605664-89.060598-27.411551 11.208918-48.248642 33.465085-58.792928 62.601086-13.885406 38.315098-8.981504 84.659661 13.472257 127.10625 30.770634 58.128297 89.150413 97.197841 145.195 97.197841a110.472504 110.472504 0 0 0 42.44659-8.245021zM431.130175 384.876146c6.017608 0 12.035216-0.610742 18.052824-1.814264 70.594625-14.442259 113.13103-109.053427 96.910433-215.376476-16.148745-106.143419-86.689481-180.348609-157.463736-165.888387-70.630551 14.38837-113.13103 108.945649-96.928396 215.322587 14.819482 97.215804 73.414817 167.756539 139.428875 167.75654zM1070.236066 307.904653c-10.50836-29.082111-31.435265-51.392168-58.792928-62.601086-62.726827-25.812844-148.590009 15.376336-187.605664 89.060598-22.453761 42.44659-27.357662 88.77319-13.472257 127.10625 10.50836 29.082111 31.381376 51.248464 58.739039 62.493308a111.514359 111.514359 0 0 0 42.500479 8.209095h0.035926c56.008662 0 114.298625-39.069544 145.06926-97.161915 22.453761-42.392701 27.393588-88.755227 13.526145-127.10625zM676.450987 383.061882c6.017608 1.203522 12.035216 1.814264 18.016897 1.814264h0.035926c65.906279 0 124.573466-70.540736 139.428875-167.75654C850.135319 110.742668 807.545025 16.185389 737.004289 1.797019c-70.882033-14.460222-141.36888 59.744967-157.481698 165.888387-16.292449 106.323049 26.297845 200.934217 96.928396 215.376476z" fill="#FBB713" p-id="8423"></path><path d="M254.356205 334.364165c-28.489332-53.781248-81.965209-90.048563-133.123858-95.796726a190.821043 190.821043 0 0 1 74.33093 76.199083c22.453761 42.410664 27.357662 88.737264 13.472257 127.124214-10.50836 29.064148-31.381376 51.28439-58.739039 62.475345a110.526393 110.526393 0 0 1-42.44659 8.245021c-4.23927 0-8.496503-0.646668-12.735773-1.095744 22.705243 13.023181 47.260676 20.693386 71.510738 20.693386a110.472504 110.472504 0 0 0 42.44659-8.245021c27.357662-11.190955 48.248642-33.411196 58.757002-62.493308 13.885406-38.351024 8.963541-84.71355-13.472257-127.10625zM546.093432 167.685406c-12.789662-84.084844-59.744967-147.925378-113.885476-163.732826 26.908587 29.962299 47.332528 73.468706 55.110511 124.537541 16.202634 106.323049-26.333771 200.934217-96.928396 215.376476-6.017608 1.203522-12.035216 1.814264-18.052824 1.814263a94.665057 94.665057 0 0 1-26.136178-3.82612c24.088395 27.016365 53.637544 43.021406 84.929106 43.021406 6.017608 0 12.035216-0.610742 18.052824-1.814264 70.594625-14.442259 113.13103-109.053427 96.910433-215.376476zM1070.218103 307.88669a105.353047 105.353047 0 0 0-47.40438-56.421811c3.089638 5.478718 6.017608 11.101139 8.227058 17.226526 13.885406 38.38695 8.927615 84.71355-13.508183 127.124213-30.788597 58.074408-89.078561 97.143952-145.069259 97.143952h-0.053889a111.568248 111.568248 0 0 1-42.500479-8.191132c-4.041677-1.652597-7.616316-4.041677-11.352622-6.143349 11.604104 20.549682 28.938407 36.446945 50.547907 45.338634a111.514359 111.514359 0 0 0 42.500479 8.209095h0.035926c56.008662 0 114.298625-39.069544 145.06926-97.161915 22.453761-42.392701 27.393588-88.737264 13.508182-127.124213zM782.360887 25.077079c14.657815 37.381021 19.885051 83.995029 12.376513 133.249599-14.855408 97.215804-73.504632 167.756539-139.428875 167.75654h-0.053889c-5.963719 0-11.981327-0.592779-17.998935-1.796301-16.903191-3.466861-32.135823-11.622067-45.410486-23.315985 16.975043 43.362703 46.68586 74.348894 84.605772 82.09095 6.017608 1.203522 12.035216 1.814264 18.016897 1.814264h0.035926c65.906279 0 124.573466-70.540736 139.428875-167.75654 12.322624-80.905392-9.43058-154.895025-51.571798-192.042527z" fill="#060606" p-id="8424"></path></svg>